<?xml version="1.0"?>
<svg version="1.1" xmlns="http://www.w3.org/2000/svg" xmlns:xlink="http://www.w3.org/1999/xlink" width="888" height="140">
    <desc iVinci="yes" version="4.6" gridStep="20" showGrid="no" snapToGrid="no" codePlatform="0" markedExportShape="1"/>
    <g id="Layer1" name="Layer 1" opacity="1">
        <g id="Shape1">
            <desc shapeID="1" type="0" basicInfo-basicType="1" basicInfo-roundedRectRadius="12" basicInfo-polygonSides="6" basicInfo-starPoints="5" bounding="rect(-109,-61.5002,218,123)" text="" font-familyName="Helvetica" font-pixelSize="20" font-bold="0" font-underline="0" font-alignment="1" strokeStyle="0" markerStart="0" markerEnd="0" shadowEnabled="0" shadowOffsetX="0" shadowOffsetY="2" shadowBlur="4" shadowOpacity="160" blurEnabled="0" blurRadius="4" transform="matrix(4.07339,0,0,1.13821,444,70.0001)" pers-center="0,0" pers-size="0,0" pers-start="0,0" pers-end="0,0" locked="0" mesh="" flag=""/>
            <path id="shapePath1" d="M0.00012207,4.57764e-05 L888,4.57764e-05 L888,140 L0.00012207,140 L0.00012207,4.57764e-05 Z" style="stroke:none;fill-rule:evenodd;fill:#eb8881;fill-opacity:1;"/>
        </g>
        <g id="Shape2">
            <desc shapeID="2" type="2" basicInfo-basicType="0" basicInfo-roundedRectRadius="12" basicInfo-polygonSides="6" basicInfo-starPoints="5" bounding="rect(-59.5,-31.1182,119,62.2363)" text="ð" font-familyName="Helvetica" font-pixelSize="46" font-bold="0" font-underline="0" font-alignment="1" strokeStyle="0" markerStart="0" markerEnd="0" shadowEnabled="0" shadowOffsetX="0" shadowOffsetY="2" shadowBlur="4" shadowOpacity="160" blurEnabled="0" blurRadius="4" transform="matrix(1,0,0,1,442.567,51.1946)" pers-center="0,0" pers-size="0,0" pers-start="0,0" pers-end="0,0" locked="0" mesh="" flag=""/>
            <path id="shapePath2" d="M447.339,58.303 C448.649,56.6409 449.304,54.2525 449.304,51.138 C449.304,48.4876 448.735,46.3425 447.597,44.7029 C446.459,43.0633 444.685,42.2434 442.274,42.2434 C440.327,42.2434 438.706,43.0445 437.411,44.6467 C436.116,46.249 435.468,48.4876 435.468,51.3626 C435.468,53.6536 435.768,55.4954 436.367,56.888 C437.475,59.4934 439.556,60.7962 442.611,60.7962 C444.453,60.7962 446.029,59.9651 447.339,58.303 M444.251,39.6155 C444.909,39.7952 445.531,40.0722 446.115,40.4466 C445.246,39.1139 444.408,38.0208 443.599,37.1673 C442.791,36.3137 441.555,35.1158 439.893,33.5735 L436.277,36.0891 L434.503,34.5842 L438.186,31.9788 L434.839,29.2161 L437.804,27.0374 C438.448,27.5315 439.01,27.9695 439.489,28.3513 C439.968,28.7332 440.597,29.2535 441.376,29.9124 L444.745,27.554 L446.429,29.0589 L443.038,31.4622 C446.482,34.7115 449.02,37.7063 450.652,40.4466 C452.629,43.8007 453.617,47.3196 453.617,51.0032 C453.617,54.7167 452.621,57.865 450.629,60.448 C448.638,63.031 445.77,64.3225 442.027,64.3225 C438.478,64.3225 435.779,63.1396 433.93,60.7737 C432.081,58.4078 431.156,55.3831 431.156,51.6995 C431.156,47.7613 432.152,44.7141 434.143,42.5579 C436.135,40.4016 438.605,39.3235 441.555,39.3235 C442.648,39.3235 443.547,39.4208 444.251,39.6155 Z" style="stroke:none;fill-rule:nonzero;fill:#ffffff;fill-opacity:1;"/>
        </g>
        <g id="Shape3">
            <desc shapeID="3" type="2" basicInfo-basicType="0" basicInfo-roundedRectRadius="12" basicInfo-polygonSides="6" basicInfo-starPoints="5" bounding="rect(-89.7948,-45.9063,179.59,91.8127)" text="Verðandi" font-familyName="Helvetica Neue" font-pixelSize="20" font-bold="0" font-underline="0" font-alignment="1" strokeStyle="0" markerStart="0" markerEnd="0" shadowEnabled="0" shadowOffsetX="0" shadowOffsetY="2" shadowBlur="4" shadowOpacity="160" blurEnabled="0" blurRadius="4" transform="matrix(1,0,0,1,443.747,97.2121)" pers-center="0,0" pers-size="0,0" pers-start="0,0" pers-end="0,0" locked="0" mesh="" flag=""/>
            <path id="shapePath3" d="M411.88,104.337 L416.96,90.0571 L414.98,90.0571 L410.86,102.437 L410.82,102.437 L406.74,90.0571 L404.7,90.0571 L409.72,104.337 L411.88,104.337 M424.27,98.1771 L418.329,98.1771 C418.356,97.7771 418.443,97.4004 418.59,97.0471 C418.736,96.6938 418.936,96.3838 419.19,96.1171 C419.443,95.8504 419.746,95.6404 420.1,95.4871 C420.453,95.3338 420.85,95.2571 421.29,95.2571 C421.716,95.2571 422.106,95.3338 422.46,95.4871 C422.813,95.6404 423.12,95.8471 423.38,96.1071 C423.639,96.3671 423.846,96.6771 424,97.0371 C424.153,97.3971 424.243,97.7771 424.27,98.1771 M425.91,101.057 L424.23,101.057 C424.083,101.737 423.78,102.244 423.32,102.577 C422.859,102.91 422.27,103.077 421.549,103.077 C420.99,103.077 420.503,102.984 420.09,102.797 C419.676,102.61 419.336,102.36 419.07,102.047 C418.803,101.734 418.609,101.374 418.49,100.967 C418.37,100.56 418.316,100.13 418.329,99.6771 L426.07,99.6771 C426.096,99.0504 426.04,98.3904 425.9,97.6971 C425.76,97.0038 425.506,96.3638 425.139,95.7771 C424.773,95.1904 424.286,94.7071 423.68,94.3271 C423.073,93.9471 422.31,93.7571 421.389,93.7571 C420.683,93.7571 420.033,93.8904 419.44,94.1571 C418.846,94.4238 418.333,94.7971 417.9,95.2771 C417.466,95.7571 417.13,96.3238 416.889,96.9771 C416.65,97.6304 416.53,98.3504 416.53,99.1371 C416.556,99.9238 416.673,100.65 416.88,101.317 C417.086,101.984 417.396,102.557 417.81,103.037 C418.223,103.517 418.733,103.89 419.34,104.157 C419.946,104.424 420.663,104.557 421.49,104.557 C422.663,104.557 423.636,104.264 424.41,103.677 C425.183,103.09 425.683,102.217 425.91,101.057 M427.764,93.9971 L427.764,104.337 L429.464,104.337 L429.464,99.7371 C429.464,99.0704 429.531,98.4804 429.664,97.9671 C429.797,97.4538 430.011,97.0171 430.304,96.6571 C430.597,96.2971 430.984,96.0238 431.464,95.8371 C431.944,95.6504 432.524,95.5571 433.204,95.5571 L433.204,93.7571 C432.284,93.7304 431.524,93.9171 430.924,94.3171 C430.324,94.7171 429.817,95.3371 429.404,96.1771 L429.364,96.1771 L429.364,93.9971 L427.764,93.9971 M438.84,95.7171 C439.427,95.7171 439.93,95.8104 440.35,95.9971 C440.77,96.1838 441.113,96.4371 441.38,96.7571 C441.647,97.0771 441.843,97.4438 441.97,97.8571 C442.097,98.2704 442.16,98.7104 442.16,99.1771 C442.16,99.8038 442.077,100.36 441.91,100.847 C441.743,101.334 441.513,101.74 441.22,102.067 C440.927,102.394 440.583,102.644 440.19,102.817 C439.797,102.99 439.38,103.077 438.94,103.077 C438.5,103.077 438.083,102.99 437.69,102.817 C437.297,102.644 436.953,102.394 436.66,102.067 C436.367,101.74 436.137,101.334 435.97,100.847 C435.803,100.36 435.72,99.8038 435.72,99.1771 C435.72,98.1504 435.983,97.3171 436.51,96.6771 C437.037,96.0371 437.813,95.7171 438.84,95.7171 M438.64,94.2171 C437.88,94.2171 437.207,94.3538 436.62,94.6271 C436.033,94.9004 435.54,95.2671 435.14,95.7271 C434.74,96.1871 434.437,96.7138 434.23,97.3071 C434.023,97.9004 433.92,98.5238 433.92,99.1771 C433.92,99.9371 434.027,100.644 434.24,101.297 C434.453,101.95 434.773,102.52 435.2,103.007 C435.627,103.494 436.153,103.874 436.78,104.147 C437.407,104.42 438.127,104.557 438.94,104.557 C439.767,104.557 440.49,104.42 441.11,104.147 C441.73,103.874 442.253,103.494 442.68,103.007 C443.107,102.52 443.427,101.95 443.64,101.297 C443.853,100.644 443.96,99.9371 443.96,99.1771 C443.96,97.6438 443.683,96.2338 443.13,94.9471 C442.577,93.6604 441.693,92.5171 440.48,91.5171 L442.78,90.4571 L442.08,89.7171 L439.68,90.8371 C439.413,90.6238 439.137,90.4171 438.85,90.2171 C438.563,90.0171 438.327,89.8504 438.14,89.7171 L436.74,90.6171 C436.927,90.7238 437.153,90.8638 437.42,91.0371 C437.687,91.2104 437.927,91.3904 438.14,91.5771 L435.96,92.5971 L436.72,93.3971 L439.02,92.3171 C439.18,92.4238 439.367,92.5771 439.58,92.7771 C439.793,92.9771 440.013,93.2104 440.24,93.4771 C440.467,93.7438 440.687,94.0338 440.9,94.3471 C441.113,94.6604 441.3,94.9904 441.46,95.3371 L441.42,95.3371 C441.06,94.9238 440.64,94.6338 440.16,94.4671 C439.68,94.3004 439.173,94.2171 438.64,94.2171 M455.109,104.297 C454.816,104.47 454.409,104.557 453.889,104.557 C453.449,104.557 453.099,104.434 452.839,104.187 C452.579,103.94 452.449,103.537 452.449,102.977 C451.982,103.537 451.439,103.94 450.819,104.187 C450.199,104.434 449.529,104.557 448.809,104.557 C448.342,104.557 447.899,104.504 447.479,104.397 C447.059,104.29 446.696,104.124 446.389,103.897 C446.082,103.67 445.839,103.374 445.659,103.007 C445.479,102.64 445.389,102.197 445.389,101.677 C445.389,101.09 445.489,100.61 445.689,100.237 C445.889,99.8638 446.152,99.5604 446.479,99.3271 C446.806,99.0938 447.179,98.9171 447.599,98.7971 C448.019,98.6771 448.449,98.5771 448.889,98.4971 C449.356,98.4038 449.799,98.3338 450.219,98.2871 C450.639,98.2404 451.009,98.1738 451.329,98.0871 C451.649,98.0004 451.902,97.8738 452.089,97.7071 C452.276,97.5404 452.369,97.2971 452.369,96.9771 C452.369,96.6038 452.299,96.3038 452.159,96.0771 C452.019,95.8504 451.839,95.6771 451.619,95.5571 C451.399,95.4371 451.152,95.3571 450.879,95.3171 C450.606,95.2771 450.336,95.2571 450.069,95.2571 C449.349,95.2571 448.749,95.3938 448.269,95.6671 C447.789,95.9404 447.529,96.4571 447.489,97.2171 L445.789,97.2171 C445.816,96.5771 445.949,96.0371 446.189,95.5971 C446.429,95.1571 446.749,94.8004 447.149,94.5271 C447.549,94.2538 448.006,94.0571 448.519,93.9371 C449.032,93.8171 449.582,93.7571 450.169,93.7571 C450.636,93.7571 451.099,93.7904 451.559,93.8571 C452.019,93.9238 452.436,94.0604 452.809,94.2671 C453.182,94.4738 453.482,94.7638 453.709,95.1371 C453.936,95.5104 454.049,95.9971 454.049,96.5971 L454.049,101.917 C454.049,102.317 454.072,102.61 454.119,102.797 C454.166,102.984 454.322,103.077 454.589,103.077 C454.736,103.077 454.909,103.044 455.109,102.977 L455.109,104.297 M452.349,98.9971 C452.136,99.1571 451.856,99.2738 451.509,99.3471 C451.162,99.4204 450.799,99.4804 450.419,99.5271 C450.039,99.5738 449.656,99.6271 449.269,99.6871 C448.882,99.7471 448.536,99.8438 448.229,99.9771 C447.922,100.11 447.672,100.3 447.479,100.547 C447.286,100.794 447.189,101.13 447.189,101.557 C447.189,101.837 447.246,102.074 447.359,102.267 C447.472,102.46 447.619,102.617 447.799,102.737 C447.979,102.857 448.189,102.944 448.429,102.997 C448.669,103.05 448.922,103.077 449.189,103.077 C449.749,103.077 450.229,103 450.629,102.847 C451.029,102.694 451.356,102.5 451.609,102.267 C451.862,102.034 452.049,101.78 452.169,101.507 C452.289,101.234 452.349,100.977 452.349,100.737 L452.349,98.9971 M456.683,93.9971 L456.683,104.337 L458.383,104.337 L458.383,98.4971 C458.383,98.0304 458.447,97.6004 458.573,97.2071 C458.7,96.8138 458.89,96.4704 459.143,96.1771 C459.397,95.8838 459.713,95.6571 460.093,95.4971 C460.473,95.3371 460.923,95.2571 461.443,95.2571 C462.097,95.2571 462.61,95.4438 462.983,95.8171 C463.357,96.1904 463.543,96.6971 463.543,97.3371 L463.543,104.337 L465.243,104.337 L465.243,97.5371 C465.243,96.9771 465.187,96.4671 465.073,96.0071 C464.96,95.5471 464.763,95.1504 464.483,94.8171 C464.203,94.4838 463.837,94.2238 463.383,94.0371 C462.93,93.8504 462.363,93.7571 461.683,93.7571 C460.15,93.7571 459.03,94.3838 458.323,95.6371 L458.283,95.6371 L458.283,93.9971 L456.683,93.9971 M469.033,99.2571 C469.033,98.7504 469.086,98.2571 469.193,97.7771 C469.299,97.2971 469.473,96.8704 469.713,96.4971 C469.953,96.1238 470.273,95.8238 470.673,95.5971 C471.073,95.3704 471.559,95.2571 472.133,95.2571 C472.719,95.2571 473.219,95.3671 473.633,95.5871 C474.046,95.8071 474.383,96.0971 474.643,96.4571 C474.903,96.8171 475.093,97.2338 475.213,97.7071 C475.333,98.1804 475.393,98.6704 475.393,99.1771 C475.393,99.6571 475.336,100.13 475.223,100.597 C475.109,101.064 474.926,101.48 474.673,101.847 C474.419,102.214 474.093,102.51 473.693,102.737 C473.293,102.964 472.806,103.077 472.233,103.077 C471.686,103.077 471.209,102.97 470.803,102.757 C470.396,102.544 470.063,102.257 469.803,101.897 C469.543,101.537 469.349,101.127 469.223,100.667 C469.096,100.207 469.033,99.7371 469.033,99.2571 M477.033,104.337 L477.033,90.0571 L475.333,90.0571 L475.333,95.3771 L475.293,95.3771 C475.106,95.0704 474.876,94.8138 474.603,94.6071 C474.329,94.4004 474.039,94.2338 473.733,94.1071 C473.426,93.9804 473.119,93.8904 472.813,93.8371 C472.506,93.7838 472.219,93.7571 471.953,93.7571 C471.166,93.7571 470.476,93.9004 469.883,94.1871 C469.289,94.4738 468.796,94.8604 468.403,95.3471 C468.009,95.8338 467.716,96.4038 467.523,97.0571 C467.329,97.7104 467.233,98.4038 467.233,99.1371 C467.233,99.8704 467.333,100.564 467.533,101.217 C467.733,101.87 468.029,102.444 468.423,102.937 C468.816,103.43 469.309,103.824 469.903,104.117 C470.496,104.41 471.193,104.557 471.993,104.557 C472.713,104.557 473.373,104.43 473.973,104.177 C474.573,103.924 475.013,103.51 475.293,102.937 L475.333,102.937 L475.333,104.337 L477.033,104.337 M481.452,92.1371 L481.452,90.0571 L479.752,90.0571 L479.752,92.1371 L481.452,92.1371 M479.752,93.9971 L479.752,104.337 L481.452,104.337 L481.452,93.9971 L479.752,93.9971 Z" style="stroke:none;fill-rule:nonzero;fill:#ffffff;fill-opacity:1;"/>
        </g>
    </g>
</svg>
